<svg xmlns="http://www.w3.org/2000/svg" viewBox="0 0 512 512">
    <defs>
        <style>
            .cls-1 {
                fill: #fff;
            }
        </style>
    </defs>
    <g id="Layer_2" data-name="Layer 2">
        <g id="svg3">
            <path id="path" class="cls-1"
                d="M256,0C114.61,0,0,114.61,0,256S114.61,512,256,512,512,397.38,512,256,397.38,0,256,0Zm47.36,130.45,7.1-7.09a5.85,5.85,0,0,1,4.17-1.74h0a5.82,5.82,0,0,1,4.17,1.73l69.84,69.83v0a5.89,5.89,0,0,1,0,8.33l-7.1,7.09,0,0a5.89,5.89,0,0,1-8.32,0L303.36,138.8v0A5.89,5.89,0,0,1,303.36,130.45Zm-180,62.74,69.83-69.83a5.88,5.88,0,0,1,4.18-1.74h0a5.9,5.9,0,0,1,4.17,1.73l7.09,7.09v0a5.89,5.89,0,0,1,0,8.33L138.8,208.63h0a5.89,5.89,0,0,1-8.33,0l-7.09-7.09,0,0A5.88,5.88,0,0,1,123.36,193.19Zm85.27,188.35-7.09,7.09,0,0a5.88,5.88,0,0,1-8.33,0L123.36,318.8h0a5.88,5.88,0,0,1,0-8.33l7.09-7.1a5.91,5.91,0,0,1,4.18-1.73h0a5.9,5.9,0,0,1,4.17,1.73l69.83,69.83,0,0A5.89,5.89,0,0,1,208.63,381.54Zm51.52,4.81a5.89,5.89,0,0,1-8.33,0L125.66,260.17v0a5.88,5.88,0,0,1,0-8.32L251.83,125.66a5.84,5.84,0,0,1,4.16-1.73,5.9,5.9,0,0,1,4.18,1.73L386.33,251.83h0a5.89,5.89,0,0,1,0,8.33L260.17,386.34ZM388.64,318.8,318.8,388.63l0,0a5.87,5.87,0,0,1-8.32,0l-7.1-7.09v0a5.89,5.89,0,0,1,0-8.33l69.84-69.83a5.88,5.88,0,0,1,4.17-1.73h0a5.9,5.9,0,0,1,4.17,1.73l7.1,7.1v0A5.88,5.88,0,0,1,388.64,318.8Z" />
        </g>
    </g>
</svg>