<svg xmlns="http://www.w3.org/2000/svg" viewBox="0 0 512 512">
    <defs>
        <style>
            .cls-1 {
                fill: #fff;
            }
        </style>
    </defs>
    <g id="Layer_2" data-name="Layer 2">
        <g id="svg3">
            <circle class="cls-1" cx="256" cy="256" r="256" />
            <path id="path3"
                d="M197.37,121.62a5.88,5.88,0,0,0-4.18,1.74l-69.83,69.83a5.88,5.88,0,0,0,0,8.33l0,0,7.09,7.09a5.89,5.89,0,0,0,8.33,0h0l69.83-69.83a5.89,5.89,0,0,0,0-8.33v0l-7.09-7.09a5.9,5.9,0,0,0-4.17-1.73Zm117.26,0a5.85,5.85,0,0,0-4.17,1.74l-7.1,7.09a5.89,5.89,0,0,0,0,8.33v0l69.84,69.83a5.89,5.89,0,0,0,8.32,0l0,0,7.1-7.09a5.89,5.89,0,0,0,0-8.33v0L318.8,123.36a5.82,5.82,0,0,0-4.17-1.73ZM256,123.93a5.84,5.84,0,0,0-4.16,1.73L125.66,251.83a5.88,5.88,0,0,0,0,8.32v0L251.82,386.34a5.89,5.89,0,0,0,8.33,0h0L386.33,260.17a5.89,5.89,0,0,0,0-8.33h0L260.17,125.66A5.9,5.9,0,0,0,256,123.93ZM134.63,301.63a5.91,5.91,0,0,0-4.18,1.73l-7.09,7.1a5.88,5.88,0,0,0,0,8.33h0l69.83,69.83a5.88,5.88,0,0,0,8.33,0l0,0,7.09-7.09a5.89,5.89,0,0,0,0-8.32l0,0L138.8,303.36a5.9,5.9,0,0,0-4.17-1.73Zm242.74,0a5.88,5.88,0,0,0-4.17,1.73l-69.84,69.83a5.89,5.89,0,0,0,0,8.33v0l7.1,7.09a5.87,5.87,0,0,0,8.32,0l0,0,69.84-69.83a5.88,5.88,0,0,0,0-8.32v0l-7.1-7.1a5.9,5.9,0,0,0-4.17-1.73Z" />
        </g>
    </g>
</svg>