<svg xmlns="http://www.w3.org/2000/svg" viewBox="0 0 499.08 500.42">
    <defs>
        <style>
            .cls-1 {
                fill: none;
            }

            .cls-2 {
                fill: #f8faff;
            }
        </style>
    </defs>
    <g id="Layer_2" data-name="Layer 2">
        <g id="Layer_1-2" data-name="Layer 1">
            <polygon class="cls-1" points="1.34 0 499.08 0 499.08 498.41 0 500.42 1.34 0" />
            <path class="cls-2"
                d="M251.61,354.71c-57.58-12.91-64.12-60.28-64.85-69.65l28.67-7.69a8.28,8.28,0,0,0,2.07-15.14l-82.26-48.38A10.36,10.36,0,0,0,121,217.67l-47,83a8.28,8.28,0,0,0,9.36,12.08l28.77-7.71c14.3,46.79,50.78,77.91,88.25,77.9a67.1,67.1,0,0,0,17.36-2.28,69.21,69.21,0,0,0,35-22.78,2,2,0,0,0,.36-1.9,1.94,1.94,0,0,0-1.44-1.29" />
            <path class="cls-2"
                d="M359.39,356.33c38.51-41.29,44.17-97.76,12.68-129.26a68,68,0,0,0-33.79-18.25,2,2,0,0,0-1.94.66,1.94,1.94,0,0,0-.31,2c18.83,45.73-23.29,83.35-31.43,90.05l-20.87-20.87a8.28,8.28,0,0,0-14.15,5.78l-.77,95.43a10.35,10.35,0,0,0,10.34,10.42h.09l95.42-.76a8.29,8.29,0,0,0,5.8-14.14l-21.07-21.07" />
            <path class="cls-2"
                d="M352.77,178.1a10.3,10.3,0,0,0-1.08-7.92L303.31,87.93a8.28,8.28,0,0,0-15.14,2l-7.71,28.77c-55-12.7-106.76,10.63-118.27,53.64a69.15,69.15,0,0,0,2.22,41.77,2,2,0,0,0,1.61,1.29,2,2,0,0,0,1.87-.84c25.36-36.92,81.67-23.79,92.47-20.85l-7.59,28.36a8.16,8.116,0,0,0,2.92,8.69,8.24,8.24,0,0,0,9.17.66l83-47.05a10.29,10.29,0,0,0,4.89-6.32" />
        </g>
    </g>
</svg>